<svg width="83" height="64" viewBox="0 0 83 64" fill="none" xmlns="http://www.w3.org/2000/svg">
<path d="M81.8858 63.2322C81.8334 63.1754 81.7287 62.9955 81.5715 62.6926L78.6519 55.9334C78.0133 55.6698 77.1623 55.6698 76.0988 55.9334L77.0153 58.1486H73.1137L74.0302 55.9334C73.1909 55.6384 72.4533 55.6384 71.8176 55.9334L69.0288 62.6926C68.9241 62.9766 68.8368 63.1565 68.767 63.2322C68.6797 63.3079 68.5662 63.3553 68.4266 63.3742V63.6298H71.3331V63.3742C71.176 63.3363 71.0975 63.2417 71.0975 63.0902C71.0975 63.0145 71.176 62.7967 71.3331 62.437C71.6823 61.6607 72.0139 60.9129 72.3282 60.1934H77.9842C78.8046 62.1246 79.2149 63.1186 79.2149 63.1754C79.2149 63.3079 79.1189 63.3742 78.9268 63.3742V63.6298H82.2524V63.3742C82.0778 63.3742 81.9556 63.3269 81.8858 63.2322ZM19.8006 50.5942H16.2395V50.8214C16.414 50.8214 16.5624 50.8971 16.6846 51.0486C16.7544 51.0864 16.8766 51.2379 17.0512 51.503L21.6074 58.0066V62.8346C21.6074 63.1943 21.4765 63.3742 21.2147 63.3742V63.6298H24.3569V63.3742C24.0776 63.3742 23.9379 63.1943 23.9379 62.8346V58.0066L28.2585 51.503C28.5552 51.0864 28.8433 50.8592 29.1226 50.8214V50.5942H25.7447V50.8214C25.8843 50.8782 25.9542 50.9634 25.9542 51.077C25.9018 51.1716 25.8582 51.2568 25.8232 51.3326L22.8119 55.7914L19.8268 51.4462C19.6697 51.1811 19.5912 51.0391 19.5912 51.0202C19.5912 50.8876 19.661 50.8214 19.8006 50.8214V50.5942ZM32.291 62.6926C32.1862 62.9766 32.099 63.1565 32.0291 63.2322C31.9419 63.3079 31.8284 63.3553 31.6887 63.3742V63.6298H34.5953V63.3742C34.4382 63.3363 34.3596 63.2417 34.3596 63.0902C34.3596 63.0145 34.4382 62.7967 34.5953 62.437C34.9619 61.6607 35.2936 60.9129 35.5903 60.1934H41.2463C42.0843 62.1246 42.5032 63.1186 42.5032 63.1754C42.5032 63.3079 42.3985 63.3742 42.189 63.3742V63.6298H45.5145V63.3742C45.3399 63.3742 45.2178 63.3269 45.1479 63.2322C45.0956 63.1754 44.9908 62.9955 44.8337 62.6926L41.9141 55.9334C40.9951 55.6759 40.1441 55.6759 39.361 55.9334L40.2775 58.1486H36.3759L37.2924 55.9334C36.6245 55.6691 35.8869 55.6691 35.0797 55.9334L32.291 62.6926ZM3.40871 55.9334L0.606898 62.6926C0.502158 62.9766 0.414873 63.1565 0.345046 63.2322C0.257762 63.3079 0.144293 63.3553 0.00463867 63.3742V63.6298H2.9112V63.3742C2.77154 63.3363 2.70171 63.2417 2.70171 63.0902C2.70171 63.0713 3.09449 62.1057 3.88005 60.1934H9.56224C10.3827 62.1246 10.7929 63.1186 10.7929 63.1754C10.7929 63.3079 10.6969 63.3742 10.5049 63.3742V63.6298H13.8304V63.3742C13.6559 63.3742 13.5337 63.3269 13.4638 63.2322C13.4115 63.1754 13.3067 62.9955 13.1496 62.6926L10.23 55.9334C9.31243 55.6812 8.46141 55.6812 7.6769 55.9334L8.59338 58.1486H4.6656L5.58209 55.9334C4.85763 55.6698 4.13317 55.6698 3.40871 55.9334ZM63.2157 50.5942H60.2568V50.8214C60.4314 50.8214 60.5448 50.8687 60.5972 50.9634C60.6496 51.0202 60.6757 51.1527 60.6757 51.361V59.597L53.5272 51.3326C53.3875 51.219 53.3177 51.1338 53.3177 51.077C53.3177 50.9066 53.4661 50.8214 53.7629 50.8214V50.5942H50.254V50.8214C50.4286 50.8214 50.5421 50.8687 50.5944 50.9634C50.6294 51.0202 50.6468 51.1527 50.6468 51.361V62.8346C50.6468 63.0618 50.6294 63.2038 50.5944 63.2606C50.5421 63.3363 50.4286 63.3742 50.254 63.3742V63.6298H53.1868V63.3742C52.8726 63.3742 52.7154 63.1943 52.7154 62.8346V54.0874L60.1782 62.7494C60.3703 62.9766 60.4663 63.1375 60.4663 63.2322C60.4663 63.3269 60.3703 63.3742 60.1782 63.3742V63.6298H63.2157V63.3742C62.9015 63.3742 62.7444 63.1943 62.7444 62.8346V51.361C62.7444 51.0012 62.9015 50.8214 63.2157 50.8214V50.5942Z" fill="white"/>
<path d="M8.56486 50.5942H4.9513V50.8214C5.19569 50.8782 5.31789 50.9918 5.31789 51.1622L5.16078 51.7018L3.40637 55.9334C3.9594 56.1193 4.68386 56.1193 5.57974 55.9334L6.62715 53.4342L7.67456 55.9334C8.4664 56.1583 9.31742 56.1583 10.2276 55.9334L8.35537 51.5882C8.26809 51.3799 8.22445 51.219 8.22445 51.1054C8.22445 50.9539 8.33792 50.8592 8.56486 50.8214V50.5942ZM76.9868 50.5942H73.3732V50.8214C73.6176 50.8782 73.7398 50.9918 73.7398 51.1622C73.7398 51.2379 73.6787 51.4178 73.5565 51.7018L71.8152 55.9334C72.622 56.1212 73.3596 56.1212 74.0278 55.9334L75.0491 53.4342L76.0965 55.9334C76.8475 56.1144 77.6985 56.1144 78.6495 55.9334L76.7773 51.5882C76.69 51.3799 76.6464 51.219 76.6464 51.1054C76.6464 50.9539 76.7598 50.8592 76.9868 50.8214V50.5942ZM40.2489 50.5942H36.6354V50.8214C36.8798 50.8782 37.002 50.9918 37.002 51.1622C37.002 51.2379 36.9409 51.4178 36.8187 51.7018L35.0774 55.9334C35.7456 56.1212 36.4832 56.1212 37.29 55.9334L38.3112 53.4342L39.3586 55.9334C40.2779 56.1182 41.1289 56.1182 41.9117 55.9334L40.0395 51.5882C39.9522 51.3799 39.9085 51.219 39.9085 51.1054C39.9085 50.9539 40.022 50.8592 40.2489 50.8214V50.5942Z" fill="white"/>
<path d="M1.96797 46.989H4.42938C4.70869 44.6412 5.47679 43.0319 6.73368 42.161C7.01299 42.0095 7.32721 41.8959 7.67634 41.8202C7.84358 40.8894 7.84358 40.1037 7.67634 39.463C6.48928 39.6144 5.44187 40.012 4.53412 40.6558C3.10266 41.6971 2.22982 43.0698 1.9156 44.7738C1.81086 45.6826 1.82832 46.421 1.96797 46.989Z" fill="white"/>
<path d="M7.20529 20.0925C6.57685 20.6605 6.14043 21.3232 5.89603 22.0805C5.61672 23.0272 5.52944 24.1727 5.63418 25.5169L5.68655 26.8801C5.75638 27.3724 5.73892 27.7321 5.63418 27.9593C5.45961 28.2244 5.09302 28.4895 4.5344 28.7545L3.69648 28.9817C2.82364 29.4361 2.19519 30.2313 1.81114 31.3673C1.51438 32.314 1.42709 33.327 1.54929 34.4062L1.81114 35.315C1.91588 35.7315 1.9508 36.1102 1.91588 36.451C1.81114 36.9432 1.41836 37.8331 0.73755 39.1206C-0.170204 40.7299 -0.240031 42.6516 0.528068 44.8858C0.597895 45.0373 0.685179 45.0751 0.78992 44.9994C0.894661 44.9994 0.947031 44.9237 0.947031 44.7722V44.7154C0.947031 43.8823 1.11287 42.9735 1.44455 41.989C2.00317 40.1524 3.03312 38.6851 4.5344 37.587C5.3025 36.9811 6.5943 36.3184 8.40981 35.599C8.74149 35.5232 8.94224 35.6368 9.01207 35.9398V35.9966C9.25646 37.0568 9.69288 37.7006 10.3213 37.9278L10.5832 37.9846C10.8625 38.0603 11.0021 38.2496 11.0021 38.5526L11.1069 39.2342L11.1593 39.4046C11.1942 39.4803 11.1767 39.5371 11.1069 39.575C11.072 39.6886 11.0196 39.7264 10.9498 39.6886C9.76271 39.4235 8.67166 39.3478 7.67663 39.4614C7.41233 40.2471 7.41233 41.0328 7.67663 41.8186C8.32253 41.5914 9.18664 41.5156 10.269 41.5914C10.7228 41.6292 11.1593 41.705 11.5782 41.8186C12.17 41.2025 12.589 40.5114 12.8351 39.7454L12.7827 38.6662C12.7827 38.3254 12.8526 38.0224 12.9922 37.7574L13.2017 37.4166C13.3064 37.3408 13.3588 37.3408 13.3588 37.4166V37.8142C13.3588 38.3822 13.3937 38.9123 13.4636 39.4046C14.3074 39.2425 15.0842 38.826 15.794 38.155C15.7067 37.8142 15.6457 37.4166 15.6107 36.9622C15.5409 36.6214 15.5584 36.2806 15.6631 35.9398C15.925 34.5008 16.5272 33.2607 17.4699 32.2193C16.9685 31.749 16.3314 31.3893 15.5584 31.1401C15.0347 31.8596 14.6332 32.5128 14.3538 33.0998C14.284 33.327 14.1967 33.308 14.092 33.043V32.5033C14.092 31.9353 14.2317 31.4809 14.511 31.1401L14.7728 30.6857C14.7728 30.5721 14.7204 30.4775 14.6157 30.4017C14.2666 30.1367 13.9 30.0609 13.5159 30.1745C12.9573 30.2503 12.5034 30.6857 12.1543 31.4809L11.9448 31.8785C11.8401 32.2193 11.6306 32.3519 11.3164 32.2761C10.8276 32.1625 10.4261 32.2383 10.1118 32.5033C9.90237 32.6548 9.69288 32.9104 9.4834 33.2702C9.30884 33.5731 9.11681 33.592 8.90733 33.327C8.05195 32.0963 7.55443 30.2124 7.41477 27.6753V26.4257C7.41477 24.3999 7.58934 22.7243 7.93848 21.3989C8.28761 20.4522 8.46218 19.96 8.46218 19.9221L8.51455 19.8085L8.46218 19.6381C8.39235 19.5624 8.30507 19.5434 8.20033 19.5813C8.02576 19.5813 7.69408 19.7517 7.20529 20.0925Z" fill="white"/>
<path d="M19.6688 42.4456C19.3895 41.5368 18.796 41.0066 17.8882 40.8552C17.3296 40.7794 16.963 40.6564 16.7885 40.486C16.5441 40.2209 16.2822 39.634 16.0029 38.7252C15.9331 38.5737 15.8633 38.3844 15.7934 38.1572C14.8232 38.2939 14.0463 38.7104 13.4629 39.4068C13.4979 39.634 13.5328 39.8422 13.5677 40.0316C13.6026 40.1452 13.5851 40.2398 13.5153 40.3156C13.4106 40.4292 13.3058 40.4292 13.2011 40.3156L12.8869 40.2588C12.7821 40.2209 12.7647 40.0505 12.8345 39.7476C12.1324 40.4386 11.7134 41.1297 11.5776 41.8208C12.6599 42.0101 13.6201 42.3509 14.458 42.8432L14.6675 43.0136C14.7024 43.165 14.7024 43.2597 14.6675 43.2976C14.4231 43.6005 14.2834 43.8656 14.2485 44.0928C14.1438 44.4714 13.9343 44.6797 13.6201 44.7176C11.63 45.0962 10.2683 45.8346 9.53516 46.9328L9.48279 46.9896H14.1438L14.6151 46.9328L14.7722 46.9896H17.4693L16.3695 45.456C16.2648 45.3424 16.2124 45.2098 16.2124 45.0584V45.0016C16.2124 44.9258 16.2822 44.8501 16.4219 44.7744L16.7885 44.8312L17.2598 45.0016C18.3072 45.1909 19.0578 44.9448 19.5117 44.2632C19.7561 43.9981 19.8783 43.6384 19.8783 43.184C19.8783 42.9189 19.8085 42.6728 19.6688 42.4456Z" fill="white"/>
<path d="M26.9225 41.6498C26.8526 41.8391 26.8177 42.1231 26.8177 42.5018L26.8701 43.0698C26.9399 43.2212 26.8701 43.297 26.6606 43.297L26.3464 43.0698C26.0322 42.994 25.8751 42.7858 25.8751 42.445C25.8052 41.6498 25.5085 41.0628 24.9848 40.6842C24.8451 40.6274 24.4785 40.4286 23.885 40.0878C23.7104 40.0499 23.5184 39.9363 23.3089 39.747L22.8638 39.179C22.8289 39.1032 22.759 39.0654 22.6543 39.0654C22.5495 39.1411 22.4972 39.2168 22.4972 39.2926L22.4448 39.6902L22.0258 40.6558L21.9211 40.741C21.5021 41.4983 21.2927 42.0852 21.2927 42.5018V42.6722C21.3625 42.8994 21.2403 43.1076 20.9261 43.297L20.6642 43.4106C20.2802 43.7135 20.0881 44.1111 20.0881 44.6034L20.1929 45.1714C20.3674 45.4743 20.5595 45.5879 20.769 45.5122H20.8213C21.2054 45.3607 21.6243 45.4365 22.0782 45.7394C22.3226 45.9666 22.567 46.3263 22.8114 46.8186L22.8638 46.989H25.0895V46.8754L25.1419 46.5346C25.3164 46.2317 25.5434 46.0045 25.8227 45.853C25.9973 45.7015 26.3464 45.7773 26.8701 46.0802L27.4985 46.2506C27.708 46.2506 27.8477 46.1559 27.9175 45.9666L28.0223 45.3418C28.0223 45.001 27.935 44.6223 27.7604 44.2058C27.6557 44.0164 27.6906 43.9596 27.8651 44.0354C28.2492 44.149 28.6507 44.1868 29.0697 44.149C29.4188 44.1111 29.733 44.0164 30.0123 43.865C29.2812 42.8361 28.2862 42.022 27.0272 41.4226C26.9923 41.4983 26.9574 41.574 26.9225 41.6498Z" fill="white"/>
<path d="M37.2399 36.6222V36.5654C37.2399 35.8459 36.7947 35.3537 35.9044 35.0886L34.9094 34.9182C33.7922 34.7288 32.9542 34.4827 32.3956 34.1798L31.9766 33.839C31.7672 33.6875 31.5577 33.4035 31.3482 32.987L31.2958 32.9302C30.364 32.9502 29.6395 33.0828 29.1225 33.3278L29.4367 33.839C29.5414 34.0662 29.524 34.2555 29.3843 34.407C29.1748 34.5584 29.0003 34.5584 28.8606 34.407L28.3893 33.6118C27.3338 33.7133 26.4784 33.9594 25.8231 34.3502C25.8929 34.5016 25.9802 34.672 26.085 34.8614L26.2421 35.0318C26.4167 35.259 26.469 35.543 26.3992 35.8838C26.2945 36.1489 26.2421 36.395 26.2421 36.6222L26.2945 36.9062C26.2945 37.4363 26.5388 37.9286 27.0276 38.383C27.6212 38.8753 28.2147 38.9889 28.8082 38.7238C29.1923 38.5723 29.524 38.2505 29.8033 37.7582C29.8382 37.6825 29.9342 37.6446 30.0913 37.6446C30.1961 37.7203 30.2484 37.7961 30.2484 37.8718L30.1961 38.6102C30.1961 38.951 30.1 39.2729 29.908 39.5758C29.6985 40.0302 29.2796 40.2763 28.6511 40.3142C27.9179 40.4657 27.3768 40.8349 27.0276 41.4218C27.8027 42.3382 28.7978 43.1523 30.0128 43.8642C30.9031 43.3341 31.6101 42.2454 32.1338 40.5982C32.448 39.6894 32.6051 38.7995 32.6051 37.9286C32.6051 37.5878 32.5178 36.963 32.3432 36.0542V35.9974L32.3956 35.9406C32.6051 35.8649 32.8146 35.8649 33.0241 35.9406C33.2335 35.9406 33.3906 36.0542 33.4954 36.2814L33.6525 36.5654C33.9667 37.247 34.1238 37.7203 34.1238 37.9854V38.099L33.6001 39.4054V39.519L33.7572 40.0302L33.9144 40.087C34.0889 40.3142 34.473 40.371 35.0665 40.2574C36.1837 40.0302 36.8122 39.4811 36.9518 38.6102L37.109 38.099L37.0042 37.9286C37.0042 37.5878 37.074 37.2659 37.2137 36.963L37.2399 36.6222Z" fill="white"/>
<path d="M8.85364 20.2075C8.85364 22.4037 9.44717 24.4012 10.6342 26.1999C12.0308 28.1689 13.7852 29.4564 15.8975 30.0623C15.9673 30.1001 16.0197 30.1759 16.0546 30.2895C16.0895 30.4031 16.072 30.4788 16.0022 30.5167C15.8102 30.7439 15.6618 30.9521 15.557 31.1415C16.0584 31.6852 16.6956 32.045 17.4686 32.2207C17.7828 31.842 18.1319 31.5012 18.516 31.1983C19.2492 30.706 19.8427 30.3841 20.2966 30.2327L21.4487 29.8351C23.1769 29.4943 24.8615 29.8161 26.5025 30.8007C26.7469 30.9522 26.7294 31.1036 26.4501 31.2551L25.9264 32.0503C25.7169 32.5994 25.6122 33.0632 25.6122 33.4419C25.6122 33.707 25.682 34.0099 25.8216 34.3507C26.7465 34.2178 27.6019 33.9716 28.3878 33.6123L28.2831 33.4419C28.1783 33.2147 28.2132 33.0254 28.3878 32.8739C28.5624 32.7792 28.7369 32.7982 28.9115 32.9307L29.121 33.3283C29.777 33.3438 30.5015 33.2113 31.2944 32.9307L30.5612 31.6527C29.4614 29.9865 28.0037 28.7748 26.1882 28.0175C26.0835 28.0175 26.101 27.9607 26.2406 27.8471C27.6721 27.8849 28.5798 28.3772 28.9639 29.3239C29.1384 29.6647 29.3828 29.8351 29.6971 29.8351C29.9589 29.7215 30.0898 29.3996 30.0898 28.8695V28.4151C29.9676 27.8471 29.7669 27.3927 29.4876 27.0519C29.3479 26.7868 29.3654 26.5217 29.5399 26.2567C29.9764 25.6887 30.1946 25.1491 30.1946 24.6379C30.1946 24.3728 30.1422 24.1267 30.0375 23.8995C29.636 23.1421 28.929 22.7067 27.9165 22.5931C26.904 22.4037 25.9788 22.5741 25.1408 23.1043C24.9663 23.2179 24.7219 23.4451 24.4076 23.7859L24.3553 23.8427C23.8316 24.3728 23.3602 24.9313 22.9413 25.5183L22.1295 26.7111C21.955 26.9383 21.728 27.1465 21.4487 27.3359L20.8203 27.6199L19.6681 27.9607C18.2716 28.2257 16.9361 28.0743 15.6618 27.5063C14.3351 26.9761 13.2528 26.0957 12.4148 24.8651C11.1928 23.0096 10.7564 21.0405 11.1056 18.9579C11.4198 16.7805 12.3974 15.0481 14.0383 13.7606C14.6318 13.2684 15.2516 12.9086 15.8975 12.6814C15.2739 12.043 14.5145 11.5886 13.6193 11.3182C13.3051 11.4697 13.0258 11.659 12.7814 11.8862C10.6517 13.5524 9.37734 15.777 8.95838 18.5603L8.85364 20.2075Z" fill="white"/>
<path d="M13.7256 20.0942C13.6209 20.3592 13.5685 20.6243 13.5685 20.8894L13.6732 21.571C14.0573 22.707 14.7381 23.0667 15.7157 22.6502L16.0037 22.5366C16.2481 22.4608 16.3703 22.5555 16.3703 22.8206L16.3179 23.1614C16.3179 24.3353 16.8765 24.9222 17.9938 24.9222C19.0761 24.9222 19.6173 24.3353 19.6173 23.1614V22.8206C19.6173 22.5555 19.7395 22.4608 19.9839 22.5366L20.2457 22.6502C21.2931 23.0667 22.0088 22.707 22.3929 21.571L22.4453 20.8894L22.3405 20.0942C22.0961 19.7155 21.747 19.4315 21.2931 19.2422L21.0313 19.1854C20.752 19.1096 20.6996 18.9392 20.8742 18.6742L21.0836 18.447C21.2931 18.144 21.3979 17.8032 21.3979 17.4246C21.3979 16.8376 21.1535 16.3738 20.6647 16.033C19.7918 15.3514 19.0237 15.465 18.3604 16.3738L18.2033 16.7146C18.1683 16.7903 18.0985 16.8282 17.9938 16.8282C17.924 16.8282 17.8367 16.7903 17.7319 16.7146L17.6272 16.3738C16.9987 15.465 16.2394 15.3514 15.3491 16.033C14.8603 16.4116 14.6159 16.8755 14.6159 17.4246C14.6159 17.7275 14.7381 18.0683 14.9825 18.447L15.1396 18.6742C15.3142 18.9392 15.2792 19.1096 15.0349 19.1854L14.773 19.2422C14.2842 19.4315 13.9351 19.7155 13.7256 20.0942Z" fill="white"/>
<path d="M20.6121 7.48407C20.1582 7.71127 19.5472 7.86274 18.7791 7.93847C17.4524 8.16567 16.2217 8.89461 15.087 10.1253L14.5109 10.7501C14.1967 10.9015 13.8999 11.0909 13.6206 11.3181C13.9069 11.9925 14.6663 12.4469 15.8987 12.6813C16.9461 12.2648 18.0634 12.1322 19.2504 12.2837C21.1358 12.5488 22.6807 13.4576 23.8852 15.0101C24.1296 15.3509 24.1471 15.6349 23.9376 15.8621C23.4488 16.5816 22.9687 16.8845 22.4974 16.7709C22.1832 16.733 21.9737 16.8277 21.8689 17.0549C21.7991 17.3389 21.9911 17.5756 22.445 17.7649C22.5148 17.8406 22.637 17.8974 22.8116 17.9353C22.9687 17.9732 23.2393 18.1246 23.6234 18.3897C23.8677 18.579 24.1994 18.6548 24.6184 18.6169C25.2119 18.579 25.6658 18.3518 25.98 17.9353C26.2942 17.5945 26.4688 17.1874 26.5037 16.7141L26.6085 15.7485L26.5037 15.0669L25.8753 14.0445C24.7231 12.4162 23.2829 11.2613 21.5547 10.5797C19.844 9.87914 18.1157 9.72768 16.3701 10.1253C16.3351 10.1253 16.3351 10.0874 16.3701 10.0117C17.9412 9.38688 19.4599 9.22594 20.9263 9.52888C21.0195 8.95482 20.9148 8.27321 20.6121 7.48407Z" fill="white"/>
<path d="M22.3925 5.66694L21.764 6.46214C21.4847 6.84081 21.1879 7.12481 20.8737 7.31415C20.769 7.35201 20.6817 7.40881 20.6119 7.48455C20.4568 8.16615 20.5616 8.84775 20.9261 9.52935C21.1705 9.56722 21.4323 9.63349 21.7116 9.72815C23.405 10.334 24.8277 11.6972 25.9798 13.8178C26.0497 14.0071 26.1544 14.0639 26.2941 13.9882C26.3988 13.9503 26.4512 13.8556 26.4512 13.7042V13.6474C26.3115 13.0794 26.2417 12.3788 26.2417 11.5458C26.2417 9.36842 26.8701 7.56028 28.127 6.12134C29.4363 4.53094 30.667 3.47067 31.8191 2.94053C31.9588 2.94053 32.0286 2.9784 32.0286 3.05413L32.081 3.11093V3.22453C30.9637 3.67894 30.0124 4.3984 29.2268 5.38294C28.0397 6.93548 27.3764 8.98975 27.2367 11.5458L27.1843 12.5114C27.1843 14.7834 27.6382 16.724 28.546 18.3334C29.2443 19.4694 30.3178 20.6433 31.7668 21.855L32.1857 22.0822C32.2905 22.2337 32.3254 22.3662 32.2905 22.4798L32.1334 23.2182V23.559C32.1334 24.2027 32.3079 24.6571 32.6571 24.9222C33.0411 25.2819 33.5299 25.4429 34.1234 25.405C34.2016 23.6726 34.1144 21.9402 33.8616 20.2078C33.6521 20.2835 33.4426 20.2267 33.2331 20.0374C31.8715 19.015 30.9288 18.0588 30.4051 17.169C29.7243 15.9572 29.3839 14.4236 29.3839 12.5682V11.6594C29.5585 8.64895 30.5622 6.63254 32.3952 5.61014C32.6396 5.45867 32.8142 5.51547 32.9189 5.78054C33.951 4.19127 34.7889 2.49674 35.4327 0.696927C35.1883 0.772661 34.9788 0.772661 34.8042 0.696927C34.4551 0.54546 34.1583 0.469727 33.9139 0.469727C33.3204 0.54546 32.8316 0.810528 32.4476 1.26493L32.2381 1.66253C32.0984 1.9844 31.8715 2.16426 31.5573 2.20213C30.9987 2.27787 30.4313 2.42933 29.8552 2.65653C29.0173 3.07307 28.4063 3.4896 28.0223 3.90614L27.5509 4.47414L26.9225 4.98534C26.5035 5.06107 26.1544 5.06107 25.8751 4.98534L25.5085 4.75814C24.3913 4.4552 23.3526 4.75814 22.3925 5.66694Z" fill="white"/>
<path d="M39.228 1.49153C39.193 1.03713 38.9137 0.658461 38.39 0.355527C37.395 -0.136741 36.5309 -0.117808 35.7977 0.412327L35.5358 0.525928C35.5009 0.563794 35.466 0.620595 35.4311 0.696328C34.31 2.39087 33.4721 4.08541 32.9173 5.77994V5.89354L33.1268 6.34795C33.4061 6.68875 33.7203 6.93488 34.0695 7.08635C34.4535 7.16208 34.6106 7.37035 34.5408 7.71115V7.88155C34.4361 8.14662 34.3139 8.31702 34.1742 8.39275L33.9124 8.56315C33.2141 8.90395 32.7253 9.03649 32.446 8.96075C32.3412 8.96075 32.2016 8.90395 32.027 8.79035C31.7826 8.63889 31.643 8.56315 31.6081 8.56315L31.2938 8.39275H31.1367L30.5607 8.61995C30.421 8.92289 30.3686 9.36782 30.4035 9.95476C30.613 11.0908 31.1193 11.7913 31.9223 12.0564C32.2016 12.1321 32.4285 12.151 32.6031 12.1132C32.7777 12.1132 33.057 12.1889 33.441 12.3404L33.7029 12.3972H33.9647C34.244 12.3972 34.4012 12.5486 34.4361 12.8516C34.7154 14.442 35.4136 15.985 36.5309 17.4808C37.2553 17.4119 37.9798 17.1563 38.7043 16.714C38.1456 15.9945 37.6568 15.2561 37.2379 14.4988C37.1855 14.3094 37.2728 14.2148 37.4997 14.2148C37.8489 14.2148 38.0933 14.1201 38.2329 13.9308C38.3726 13.7793 38.5122 13.6657 38.6519 13.59C38.6107 12.9265 38.2965 12.226 37.7092 11.4884C37.395 11.6398 37.107 11.867 36.8451 12.17C36.7753 12.2457 36.7055 12.2646 36.6356 12.2268C36.5658 12.1889 36.5309 12.1321 36.5309 12.0564L36.4785 11.3748C36.4785 9.61396 37.1157 8.16555 38.39 7.02955C39.1843 5.60538 39.7429 4.07177 40.0659 2.42873C39.4025 2.76953 38.7392 3.205 38.0758 3.73514C37.6918 3.96234 37.4125 4.1138 37.2379 4.18954C36.976 4.18954 36.7927 4.1138 36.688 3.96234V3.79194C36.7578 3.6026 36.9149 3.4322 37.1593 3.28074C37.1942 3.28074 37.4823 3.22394 38.0234 3.11034H38.5471C38.6519 3.11034 38.7741 3.0346 38.9137 2.88313C39.2629 2.50447 39.3676 2.0406 39.228 1.49153Z" fill="white"/>
<path d="M46.9539 4.41664C46.7967 3.53624 46.4651 2.65584 45.9588 1.77544C45.6795 1.6997 45.4002 1.66183 45.1209 1.66183C44.1608 1.54823 43.2268 1.56717 42.3191 1.71864C42.1508 3.43211 42.1508 5.14558 42.3191 6.85905C42.4936 6.93478 42.7031 7.01052 42.9475 7.08625C43.8902 7.46492 44.3615 8.26012 44.3615 9.47186C44.3615 9.79373 44.4575 10.0683 44.6496 10.2955C44.859 10.5227 45.1209 10.6363 45.4351 10.6363C46.0286 10.6363 46.3778 10.3333 46.4825 9.72746C46.5523 9.63279 46.5873 9.59492 46.5873 9.61386C46.7967 10.2576 46.9015 10.8445 46.9015 11.3747C46.9015 13.1165 46.2207 14.8016 44.859 16.4299C44.7892 16.5056 44.7019 16.5245 44.5972 16.4867C44.5274 16.4488 44.4924 16.392 44.4924 16.3163C44.4226 14.6501 43.9076 13.3437 42.9475 12.3971C42.2262 12.8375 41.6676 13.3487 41.2717 13.9307L41.324 13.9875C42.0572 14.5933 42.4238 15.4643 42.4238 16.6003C42.4238 17.4901 42.2318 18.3137 41.8477 19.0711C41.8128 19.1847 41.743 19.2604 41.6383 19.2983C41.4637 19.2983 41.3415 19.2604 41.2717 19.1847L40.5385 18.4463C39.8402 17.8783 39.2292 17.3008 38.7055 16.7139C37.8082 16.782 37.0838 17.0376 36.5321 17.4807C37.0035 18.1623 37.6057 18.8439 38.3389 19.5255C38.3738 19.5634 38.3913 19.6012 38.3913 19.6391C38.3564 19.677 38.304 19.6959 38.2342 19.6959C37.0646 19.3172 36.0957 19.2415 35.3276 19.4687C34.9087 19.5444 34.4548 19.7338 33.966 20.0367C33.9311 20.0746 33.8962 20.1314 33.8613 20.2071C33.6099 21.9028 33.6972 23.6352 34.1231 25.4043C34.4024 25.3664 34.6643 25.3096 34.9087 25.2339L36.1132 24.6943H36.1656L36.2179 24.7511C36.0783 25.2244 36.0084 25.6315 36.0084 25.9723L36.1132 26.7675C36.2179 27.2976 36.5147 27.6952 37.0035 27.9603C37.3352 28.1496 37.6756 28.2254 38.0247 28.1875C38.1294 28.1875 38.1818 28.1496 38.1818 28.0739L38.2342 27.9603V27.9035L38.0771 26.8811V26.5403C38.0771 26.2374 38.2516 26.1616 38.6008 26.3131C39.6482 27.2219 40.5559 28.1496 41.324 29.0963C41.898 28.3954 42.2646 27.657 42.4238 26.8811C41.6557 26.048 40.8178 25.2623 39.91 24.5239C39.6656 24.2967 39.6482 24.0506 39.8577 23.7855C40.0671 23.5204 40.3115 23.3311 40.5909 23.2175C40.8352 23.066 41.132 23.0282 41.4811 23.1039C41.8652 23.2554 42.2492 23.4636 42.6333 23.7287C43.385 23.2667 43.9087 22.6987 44.2044 22.0247C43.9949 21.8732 43.7854 21.7407 43.576 21.6271C43.2967 21.4378 43.2792 21.2295 43.5236 21.0023L44.3615 20.0935C47.4863 17.4617 49.0487 14.5555 49.0487 11.3747C49.0487 9.76532 48.6297 8.31692 47.7918 7.02945C46.9888 5.70411 45.9239 4.71958 44.5972 4.07584C44.5623 4.03797 44.5448 4.00011 44.5448 3.96224C44.5448 3.92437 44.5623 3.90544 44.5972 3.90544H44.9114C45.6097 3.98117 46.2905 4.15158 46.9539 4.41664Z" fill="white"/>
<path d="M40.0666 2.42863C39.1805 3.71345 38.6219 5.24706 38.3908 7.02945C38.4606 6.99158 38.513 6.99158 38.5479 7.02945C38.5828 7.10518 38.5828 7.16198 38.5479 7.19985C38.4431 7.65425 38.3908 8.10865 38.3908 8.56305V8.73345C38.3908 9.18786 38.513 9.76532 38.7574 10.4659C38.9319 10.7688 38.8446 10.9581 38.4955 11.0339C38.2162 11.1853 37.9543 11.3368 37.71 11.4883C37.5825 12.3728 37.8967 13.0734 38.6526 13.5899C39.2462 13.1355 39.8746 13.0787 40.538 13.4195C40.8173 13.5331 41.0617 13.7035 41.2711 13.9307C42.0689 13.6789 42.6275 13.1677 42.947 12.3971C42.8772 12.3213 42.7899 12.2456 42.6851 12.1699C41.2886 10.8824 40.5554 9.69906 40.4856 8.61985V8.50625C40.4856 8.08972 40.6427 7.71105 40.9569 7.37025H41.0093V7.31345C41.3235 6.93478 41.7599 6.78331 42.3186 6.85905C42.6492 5.25312 42.6492 3.53964 42.3186 1.71863C41.5505 1.85116 40.7998 2.08783 40.0666 2.42863Z" fill="white"/>
<path d="M45.9589 1.77545C46.0608 2.65585 46.3925 3.53626 46.9539 4.41666C48.2457 4.90893 49.3455 5.76093 50.2532 6.97267C50.5675 7.35134 50.8468 7.76787 51.0912 8.22227C51.6061 7.91593 52.1211 7.34793 52.6361 6.51827C52.3917 6.1396 52.1473 5.77986 51.9029 5.43906H51.9553C52.2346 5.742 52.4964 6.06386 52.7408 6.40467C53.2296 6.15626 53.7184 5.64506 54.2072 4.87106C53.8231 4.56813 53.4216 4.20839 53.0027 3.79186C52.0076 2.80732 50.5675 2.35292 48.6821 2.42865C48.3679 2.42865 48.0537 2.37185 47.7395 2.25825C47.111 1.99319 46.5175 1.83225 45.9589 1.77545Z" fill="white"/>
<path d="M54.207 4.87018C53.285 5.38138 52.7962 5.89258 52.7406 6.40378C53.1247 6.93392 53.4389 7.50192 53.6833 8.10779C54.0325 8.82726 54.207 9.76446 54.207 10.9194V11.2602C54.207 11.2981 54.1896 11.2981 54.1546 11.2602C54.015 9.53726 53.5087 7.95632 52.6359 6.51738C52.0522 6.82373 51.5372 7.39173 51.091 8.22139C51.7369 9.45206 52.0598 10.7869 52.0598 12.2258L52.0075 13.021C51.9027 14.6114 51.3179 16.0977 50.2531 17.4798L50.2007 17.5366C50.2855 18.428 50.687 19.1475 51.4052 19.695V19.6382L51.4576 19.5246C54.1983 16.7414 57.5849 15.3687 61.6174 15.4066C61.9131 14.6114 62.0353 13.8162 61.984 13.021C59.5575 12.9831 57.1921 13.4565 54.8878 14.441C54.8529 14.441 54.8355 14.4221 54.8355 14.3842C56.7557 12.9831 59.156 12.4909 62.0364 12.9074C62.3206 12.3152 62.4428 11.6525 62.403 10.9194L62.2982 10.8626C61.9491 10.5975 61.7745 10.1715 61.7745 9.58459L61.6698 8.67579C61.3905 7.69125 60.7795 6.89605 59.8368 6.29018C59.0513 5.79791 58.1523 5.51391 57.1398 5.43818L56.1971 5.55178C55.7432 5.62751 55.4115 5.58965 55.2021 5.43818C54.9227 5.32458 54.5911 5.13525 54.207 4.87018Z" fill="white"/>
<path d="M51.4058 19.6951C51.2421 18.7913 50.8406 18.0718 50.2013 17.5367L49.5729 18.2751C48.1065 19.9413 47.0416 21.8346 46.3783 23.9552C46.3433 24.0309 46.291 24.0877 46.2211 24.1256C46.1164 24.1256 46.0291 24.0877 45.9593 24.012C45.6451 23.444 45.2436 22.9328 44.7548 22.4784C44.5802 22.3648 44.3969 22.2133 44.2049 22.024C43.3523 22.592 42.8286 23.16 42.6338 23.728C42.8782 23.8416 43.1051 23.993 43.3146 24.1824C44.0303 24.8829 44.6151 25.7444 45.069 26.7668C45.453 27.6377 45.6625 28.395 45.6974 29.0388V29.266C45.6974 29.7961 45.6276 30.3262 45.488 30.8564C45.3483 31.0457 45.2261 31.0457 45.1214 30.8564C44.4755 29.4932 43.5764 28.1678 42.4243 26.8804C41.733 27.5483 41.3664 28.2867 41.3245 29.0956C42.3719 30.3073 43.14 31.538 43.6288 32.7876C43.7685 33.0337 43.8383 33.3272 43.8383 33.668C43.8383 34.1224 43.6812 34.5579 43.367 34.9744L43.1575 35.2016L42.4243 35.8264C39.1075 38.4771 36.9516 42.1975 35.9565 46.9876H38.1299C39.0726 42.8601 40.9754 39.7456 43.8383 37.644L44.2573 37.3032C44.3271 37.2275 44.4056 37.2275 44.4929 37.3032C44.5977 37.3411 44.65 37.4357 44.65 37.5872V38.212C44.65 39.3101 44.5802 40.2852 44.4405 41.1372C44.1787 43.1441 43.5939 45.0943 42.6861 46.9876H45.069C45.8022 45.2457 46.3084 43.4092 46.5877 41.478C46.7623 40.5124 46.8496 39.4616 46.8496 38.3256L46.7972 37.1896C46.7972 36.3565 47.1114 35.8832 47.7399 35.7696C48.6127 35.5803 49.6252 35.5803 50.7774 35.7696C50.8472 35.7696 50.9345 35.7885 51.0392 35.8264C51.4516 35.1383 51.6087 34.381 51.5106 33.5544C51.4058 33.5165 51.3011 33.4976 51.1963 33.4976C49.8696 33.1946 48.4731 33.2136 47.0067 33.5544L46.902 33.4976V33.3272C47.0765 32.9674 47.3558 32.7118 47.7399 32.5604C48.3683 32.3332 48.9269 32.0302 49.4157 31.6516L49.5729 31.5948C50.4457 30.9889 51.1352 30.6102 51.6415 30.4588C53.1079 30.118 54.4171 30.1369 55.5693 30.5156C56.3353 30.0222 56.859 29.4163 57.1404 28.698C55.9533 28.0542 54.6615 27.7892 53.265 27.9028C52.9857 27.9028 52.7936 27.7892 52.6889 27.562L52.6365 27.5052C52.6016 27.4294 52.6191 27.1076 52.6889 26.5396L52.9507 25.4604C52.9857 25.3089 53.038 25.148 53.1079 24.9776C52.3659 24.6144 51.624 24.6144 50.8821 24.9776C50.5679 26.2461 50.2711 27.2212 49.9918 27.9028C49.5729 28.6601 48.9269 29.3038 48.0541 29.834H47.897L47.8446 29.6636V28.2436C47.9494 25.271 48.9095 22.6488 50.725 20.3767L51.4058 19.6951Z" fill="white"/>
<path d="M51.5087 33.5555C50.8604 34.3128 50.7033 35.0701 51.0374 35.8275C52.4165 36.1683 53.6472 36.812 54.7295 37.7587C56.2657 39.1219 57.0687 40.8354 57.1385 42.8991V43.1831C57.1735 43.2967 57.1735 43.3914 57.1385 43.4671C56.9291 43.77 56.7021 43.9972 56.4577 44.1487C56.2482 44.2244 55.8816 44.1676 55.3579 43.9783C54.7644 43.6754 54.4153 43.7132 54.3105 44.0919L54.2058 44.6599L54.4153 45.6255L54.52 45.7959L55.5151 46.7615L55.8817 46.8751L56.0388 46.9887H61.0401L61.2496 46.7615L61.6162 46.5343C61.9653 46.345 62.1399 45.9663 62.1399 45.3983C62.1399 45.0954 62.0875 44.906 61.9828 44.8303C61.8781 44.4516 61.7209 44.3191 61.5115 44.4327L61.4591 44.5463C61.075 44.6599 60.6561 44.5463 60.2022 44.2055C59.8531 44.0162 59.5912 43.6754 59.4167 43.1831C59.277 42.9559 59.2072 42.634 59.2072 42.2175C58.9279 39.6994 57.8543 37.5883 55.9864 35.8843C54.5898 34.7104 53.0973 33.9341 51.5087 33.5555Z" fill="white"/>
<path d="M57.1398 28.6977C56.2897 29.3036 55.766 29.9094 55.5687 30.5153C56.3019 30.8182 57.0002 31.2726 57.6635 31.8785C59.0426 33.1849 59.7322 34.7469 59.7322 36.5645C59.7322 36.8675 59.6274 37.0757 59.418 37.1893C59.2783 37.3029 59.1037 37.3219 58.8942 37.2461C58.7022 37.1704 58.5364 37.1893 58.3967 37.3029C58.2222 37.3787 58.1349 37.5301 58.1349 37.7573V37.9277C58.1349 38.4957 58.3356 38.8933 58.7371 39.1205L58.8942 39.1773L58.999 39.2909L58.9466 39.6885C58.9466 39.9157 59.0164 40.1619 59.1561 40.4269C59.3307 40.7109 59.6449 40.8529 60.0988 40.8529C61.0414 40.8151 61.6524 40.3133 61.9317 39.3477L62.0365 38.6093L61.827 36.6781V36.5645C61.827 34.0843 60.9018 31.9353 59.0514 30.1177C58.4404 29.474 57.8032 29.0006 57.1398 28.6977Z" fill="white"/>
<path d="M50.88 24.9783C51.5214 25.1597 52.2633 25.1597 53.1057 24.9783C53.3501 23.918 53.6818 23.0282 54.1008 22.3087C55.4275 19.8852 57.3041 18.7871 59.7306 19.0143C60.2194 19.09 60.6209 19.4497 60.9351 20.0935C61.2144 20.9266 61.7731 21.381 62.611 21.4567C63.2394 21.6082 63.7457 21.4188 64.1297 20.8887C64.5138 20.2071 64.5312 19.4119 64.1821 18.5031C63.5886 17.3103 62.192 16.6192 59.9925 16.4299C59.1894 16.4299 58.4126 16.5624 57.662 16.8275C55.4973 17.2251 53.6818 18.6356 52.2155 21.0591C51.7441 22.0058 51.299 23.2932 50.88 24.9215V24.9783Z" fill="white"/>
<path d="M70.1284 18.2757C70.76 18.261 71.563 17.9486 72.5374 17.3385C71.7344 16.6191 70.8616 15.9753 69.9189 15.4073C69.6745 15.218 69.4825 14.9529 69.3428 14.6121C69.0286 13.514 68.4176 12.6998 67.5099 12.1697C66.8116 11.7532 65.8078 11.4692 64.4986 11.3177L63.2417 11.1473C62.7878 11.0337 62.5085 10.958 62.4038 10.9201C62.0494 11.4029 61.9272 12.0656 62.0372 12.9081H62.1943L63.8178 13.1353V13.2489L61.9848 13.0217C61.5491 13.8169 61.4269 14.6121 61.6182 15.4073H61.9848C65.0747 15.4831 67.7892 16.4392 70.1284 18.2757Z" fill="white"/>
<path d="M68.8702 22.1367C68.7306 22.326 68.5735 22.2882 68.3989 22.0231L68.3465 21.7391C67.8927 20.7167 67.1595 20.4327 66.147 20.8871C65.5011 21.19 65.1781 21.6823 65.1781 22.3639C65.1781 22.629 65.248 22.913 65.3876 23.2159L65.5447 23.4999C65.6145 23.8028 65.5447 23.9543 65.3352 23.9543C65.1956 23.9164 65.0734 23.9164 64.9686 23.9543C63.9212 24.03 63.4324 24.6643 63.5023 25.8571C63.607 27.031 64.218 27.5611 65.3352 27.4475L65.5971 27.3907C65.9288 27.3907 66.0073 27.5043 65.8328 27.7315L65.7542 28.5835C65.7542 28.8107 65.8328 29.0947 65.9899 29.4355C66.2343 29.8899 66.5834 30.136 67.0373 30.1739C68.1545 30.4011 68.8179 29.9467 69.0273 28.8107L69.0797 28.4131C69.0797 28.3374 69.1321 28.2806 69.2368 28.2427C69.3067 28.2048 69.359 28.2048 69.3939 28.2427L69.7082 28.4131V28.5267H69.8129C70.197 28.7539 70.581 28.8107 70.9651 28.6971C71.384 28.6214 71.7157 28.3374 71.9601 27.8451C72.1347 27.58 72.2219 27.2392 72.2219 26.8227C72.2219 26.2168 71.9426 25.7435 71.384 25.4027L71.1222 25.2323C71.0174 25.1944 70.9651 25.1092 70.9651 24.9767C70.9651 24.901 71.0174 24.8252 71.1222 24.7495L71.3316 24.5791C71.7157 24.1626 71.9077 23.7271 71.9077 23.2727C71.9077 22.894 71.7506 22.4775 71.4364 22.0231C70.6683 21.1522 69.8827 21.1143 69.0797 21.9095L68.8702 22.1367Z" fill="white"/>
<path d="M61.7753 34.5204C61.88 35.2777 62.1419 36.0161 62.5608 36.7356H62.6132C62.8576 37.3036 63.1893 37.7959 63.6082 38.2124C63.8177 38.4017 63.8876 38.7047 63.8177 39.1212L63.7654 39.8028C63.7654 40.7305 64.0272 41.6867 64.5509 42.6712C65.2405 42.6091 65.93 42.363 66.6195 41.9328C66.2355 41.2512 66.026 40.6548 65.9911 40.1436C65.8864 39.8407 66.026 39.6892 66.4101 39.6892C67.0734 39.7649 67.7019 39.7081 68.2954 39.5188C68.5559 38.6857 68.5559 37.8527 68.2954 37.0196C68.2256 37.0575 68.1383 37.0953 68.0335 37.1332C67.3353 37.4361 66.637 37.4551 65.9387 37.19C65.223 36.8492 64.7255 36.3191 64.4462 35.5996C64.2018 34.8044 64.2018 34.0849 64.4462 33.4412V33.2708L64.4985 33.214L64.9175 32.8732C65.511 32.3998 65.8078 31.7845 65.8078 31.0272V30.8C65.738 30.1184 65.4587 29.645 64.9699 29.38C64.2716 29.0392 63.5733 29.1528 62.8751 29.7208C62.072 30.4402 61.6705 31.5289 61.6705 32.9868L61.7753 34.5204Z" fill="white"/>
<path d="M80.5494 27.9609C80.5494 27.2035 80.1915 26.503 79.4758 25.8593C79.0219 25.4806 78.5855 25.3481 78.1666 25.4617C77.8873 25.5374 77.7127 25.6321 77.6429 25.7457C77.3985 25.8971 77.2414 25.8403 77.1715 25.5753C76.7176 23.4736 75.8448 21.514 74.553 19.6964C73.9595 18.8255 73.2874 18.0398 72.5367 17.3392C71.4349 17.4896 70.6319 17.802 70.1277 18.2764C70.5816 18.6551 71.018 19.0527 71.437 19.4692C74.038 22.1199 75.3386 25.2534 75.3386 28.8697V29.0401C75.2338 29.911 75.0243 30.5737 74.7101 31.0281C74.2912 31.5961 73.654 32.2303 72.7986 32.9309L72.0654 33.6125C71.5766 34.029 71.3148 34.4266 71.2799 34.8053C71.2799 34.881 71.2449 34.9378 71.1751 34.9757C71.0704 35.0135 71.0005 35.0135 70.9656 34.9757L70.8609 34.9189C70.6165 34.7674 70.3372 34.7674 70.023 34.9189C69.7437 35.0325 69.5516 35.2407 69.4469 35.5437C69.2025 36.1496 68.8184 36.6418 68.2947 37.0205C67.9774 38.0255 67.9774 38.8585 68.2947 39.5197C68.5042 39.444 68.6788 39.3682 68.8184 39.2925H68.9232C69.1676 39.141 69.3596 39.1978 69.4993 39.4629C69.7437 40.1824 70.1277 40.7977 70.6514 41.3089C70.8958 41.6118 70.9133 41.858 70.7038 42.0473C70.0055 42.6153 68.993 42.9561 67.6663 43.0697L67.5092 43.0129L67.4044 42.9561C67.0902 42.6153 66.8284 42.2745 66.6189 41.9337C65.767 41.8981 65.0775 42.1442 64.5503 42.6721C64.8645 43.278 65.2834 43.9028 65.8072 44.5465C65.9293 44.6601 65.9904 44.7926 65.9904 44.9441V45.0009C65.9904 45.0766 65.9119 45.1713 65.7548 45.2849L64.9692 45.0009C63.9916 44.8494 63.2235 45.0956 62.6649 45.7393C62.4904 46.0801 62.4031 46.4398 62.4031 46.8185V46.9889H67.5616C67.5266 46.9132 67.5266 46.8185 67.5616 46.7049C67.7012 46.5534 67.8583 46.2694 68.0329 45.8529C68.1027 45.5878 68.2947 45.4174 68.609 45.3417C69.9357 45.0766 71.0005 44.6412 71.8036 44.0353C72.048 43.8081 72.7724 43.6188 73.9769 43.4673C74.1491 42.3612 74.1491 41.3672 73.9769 40.4853C73.6278 40.4853 73.2699 40.3906 72.9033 40.2013C72.2749 39.9741 71.8036 39.4629 71.4893 38.6677C71.2449 37.9482 71.2275 37.2098 71.437 36.4525L71.4893 36.1117C71.5592 35.9602 71.6639 35.9224 71.8036 35.9981C71.9781 36.1874 72.1178 36.3957 72.2225 36.6229C72.3273 36.9258 72.4495 37.1341 72.5891 37.2477C73.1652 37.9672 73.9595 38.1376 74.972 37.7589C75.5306 37.5696 75.8623 37.3234 75.967 37.0205V36.3389L75.4957 35.9413L75.1814 35.7709C74.7974 35.4301 74.6054 34.8053 74.6054 33.8965V33.4421C74.6054 33.2149 74.6927 33.0445 74.8672 32.9309L75.0243 32.8457C75.2687 32.6563 75.5306 32.7037 75.8099 32.9877C76.0892 33.2906 76.4034 33.4799 76.7526 33.5557C77.2763 33.6314 77.6952 33.4989 78.0094 33.1581C78.2538 32.9498 78.5157 32.893 78.795 32.9877C79.0743 33.1391 79.4235 33.2149 79.8424 33.2149C80.4883 33.1391 80.9509 32.751 81.2302 32.0505L81.4397 31.0849C81.4397 30.8198 81.3699 30.5547 81.2302 30.2897C81.1255 29.9867 80.9684 29.7217 80.7589 29.4945C80.5145 29.343 80.4272 29.0779 80.497 28.6993L80.5494 28.4153V27.9609Z" fill="white"/>
<path d="M82.0689 40.1998L82.0165 39.7454C81.9467 39.5182 81.9641 39.1774 82.0689 38.723V38.439C82.0689 38.0603 81.9816 37.7006 81.807 37.3598C81.2833 36.2995 80.4716 35.8451 79.3718 35.9966L78.4815 36.3374H78.4291C78.1149 36.4131 77.7658 36.6403 77.3817 37.019L76.4914 38.4958L76.4391 38.6094C76.1248 39.3667 75.6535 39.8969 75.0251 40.1998C74.6759 40.3513 74.3268 40.446 73.9777 40.4838C73.5517 41.4778 73.5517 42.4718 73.9777 43.4658H74.03C75.2171 43.3144 76.0201 43.2576 76.4391 43.2954C77.6261 43.4469 78.2895 44.0338 78.4291 45.0562C78.6037 46.3816 79.2758 47.0064 80.4454 46.9306C81.5975 46.8549 82.0863 46.0976 81.9118 44.6586C81.7721 43.5605 81.1175 42.6517 79.9479 41.9322L78.6386 41.3074L77.9054 41.0802C77.696 40.9666 77.661 40.8341 77.8007 40.6826L78.2197 40.0294C78.3942 39.6886 78.6386 39.5182 78.9528 39.5182C80.1225 39.6697 80.7596 40.0767 80.8644 40.7394C81.004 41.2317 81.2135 41.421 81.4928 41.3074C81.8769 41.2317 82.0689 40.8814 82.0689 40.2566V40.1998Z" fill="white"/>
</svg>
